<?xml version="1.0" encoding="utf-8"?>
<!-- Generator: Adobe Illustrator 27.5.0, SVG Export Plug-In . SVG Version: 6.00 Build 0)  -->
<svg version="1.1" id="Layer_1" xmlns="http://www.w3.org/2000/svg" xmlns:xlink="http://www.w3.org/1999/xlink" x="0px" y="0px"
	 viewBox="0 0 158 110.3" style="enable-background:new 0 0 158 110.3;" xml:space="preserve">
<style type="text/css">
	.st0{fill-rule:evenodd;clip-rule:evenodd;fill:#D99449;}
</style>
<g id="OBJECTS">
	<g>
		<g>
			<g>
				<path class="st0" d="M118.4,59.6c0.7,2.7,0,5.7-2.1,7.8L84.7,98.9c-3.1,3.1-8.3,3.1-11.4,0L41.7,67.3c-2.3-2.3-2.9-5.6-1.9-8.4
					c0,0,13.6-13.6,34-3.1C94.3,66.3,118.4,59.6,118.4,59.6z"/>
				<path class="st0" d="M91.6,38.9c3.9,0,7.1,3.2,7.1,7.1c0,3.9-3.2,7.1-7.1,7.1s-7.1-3.2-7.1-7.1C84.5,42.1,87.7,38.9,91.6,38.9
					L91.6,38.9z"/>
				<path class="st0" d="M83,9.1c1.9,0,3.4,1.5,3.4,3.4s-1.5,3.4-3.4,3.4c-1.9,0-3.4-1.5-3.4-3.4S81.2,9.1,83,9.1L83,9.1z"/>
				<path class="st0" d="M71,26.5c3.2,0,5.7,2.6,5.7,5.7c0,3.2-2.6,5.7-5.7,5.7s-5.7-2.6-5.7-5.7C65.3,29.1,67.9,26.5,71,26.5z"/>
			</g>
		</g>
	</g>
</g>
</svg>
