<?xml version="1.0" encoding="utf-8"?>
<!-- Generator: Adobe Illustrator 27.5.0, SVG Export Plug-In . SVG Version: 6.00 Build 0)  -->
<svg version="1.1" id="Layer_1" xmlns="http://www.w3.org/2000/svg" xmlns:xlink="http://www.w3.org/1999/xlink" x="0px" y="0px"
	 viewBox="0 0 158 110.3" style="enable-background:new 0 0 158 110.3;" xml:space="preserve">
<style type="text/css">
	.st0{stroke:#FFFFFF;stroke-miterlimit:10;}
	.st1{fill-rule:evenodd;clip-rule:evenodd;fill:#4ABA7C;}
</style>
<g id="OBJECTS">
	<g>
		<g>
			<g>
				<path class="st0" d="M48.4,107.1L3.3,61.9c-3.7-3.7-3.7-9.8,0-13.5L48.4,3.3c3.7-3.7,9.8-3.7,13.5,0l2.4,2.4
					c3.7,3.7,3.7,9.8,0,13.5L35.1,48.4c-3.7,3.7-3.7,9.8,0,13.5l29.2,29.2c3.7,3.7,3.7,9.8,0,13.5l-2.4,2.4
					C58.2,110.8,52.1,110.8,48.4,107.1z"/>
				<path class="st0" d="M109.6,107.1l45.2-45.2c3.7-3.7,3.7-9.8,0-13.5L109.6,3.3c-3.7-3.7-9.8-3.7-13.5,0l-2.4,2.4
					c-3.7,3.7-3.7,9.8,0,13.5l29.2,29.2c3.7,3.7,3.7,9.8,0,13.5L93.7,91.2c-3.7,3.7-3.7,9.8,0,13.5l2.4,2.4
					C99.8,110.8,105.9,110.8,109.6,107.1z"/>
			</g>
			<g>
				<path class="st1" d="M118.4,53.1c0.7,2.7,0,5.7-2.1,7.8L84.7,92.5c-3.1,3.1-8.3,3.1-11.4,0L41.7,60.9c-2.3-2.3-2.9-5.6-1.9-8.4
					c0,0,13.6-13.6,34-3.1C94.3,59.9,118.4,53.1,118.4,53.1z"/>
				<path class="st1" d="M91.6,32.5c3.9,0,7.1,3.2,7.1,7.1s-3.2,7.1-7.1,7.1s-7.1-3.2-7.1-7.1S87.7,32.5,91.6,32.5L91.6,32.5z"/>
				<path class="st1" d="M83,2.6c1.9,0,3.4,1.5,3.4,3.4S84.9,9.4,83,9.4S79.6,7.9,79.6,6S81.2,2.6,83,2.6L83,2.6z"/>
				<path class="st1" d="M71,20c3.2,0,5.7,2.6,5.7,5.7c0,3.2-2.6,5.7-5.7,5.7s-5.7-2.6-5.7-5.7S67.9,20,71,20z"/>
			</g>
		</g>
	</g>
</g>
</svg>
